<svg xmlns="http://www.w3.org/2000/svg" xmlns:xlink="http://www.w3.org/1999/xlink" width="500" zoomAndPan="magnify" viewBox="0 0 375 374.999991" height="500" preserveAspectRatio="xMidYMid meet" version="1.2"><defs/><g id="c69ed9b896"><path style=" stroke:none;fill-rule:nonzero;fill:#ffffff;fill-opacity:1;" d="M 37.5 138.136719 L 338.421875 138.136719 L 338.421875 240.597656 L 37.5 240.597656 L 37.5 138.136719 "/><g style="fill:#fa632a;fill-opacity:1;"><g transform="translate(37.916256, 219.785641)"><path style="stroke:none" d=""/></g></g><g style="fill:#fa632a;fill-opacity:1;"><g transform="translate(54.633861, 219.785641)"><path style="stroke:none" d=""/></g></g><g style="fill:#fa632a;fill-opacity:1;"><g transform="translate(71.351466, 219.785641)"><path style="stroke:none" d=""/></g></g><g style="fill:#fa632a;fill-opacity:1;"><g transform="translate(88.06907, 219.785641)"><path style="stroke:none" d=""/></g></g><g style="fill:#fa632a;fill-opacity:1;"><g transform="translate(104.786675, 219.785641)"><path style="stroke:none" d=""/></g></g><g style="fill:#fa632a;fill-opacity:1;"><g transform="translate(121.50428, 219.785641)"><path style="stroke:none" d=""/></g></g><g style="fill:#fa632a;fill-opacity:1;"><g transform="translate(138.221885, 219.785641)"><path style="stroke:none" d=""/></g></g><g style="fill:#fa632a;fill-opacity:1;"><g transform="translate(154.93949, 219.785641)"><path style="stroke:none" d=""/></g></g><g style="fill:#fa632a;fill-opacity:1;"><g transform="translate(171.657095, 219.785641)"><path style="stroke:none" d=""/></g></g><g style="fill:#fa632a;fill-opacity:1;"><g transform="translate(188.3747, 219.785641)"><path style="stroke:none" d=""/></g></g><g style="fill:#fa632a;fill-opacity:1;"><g transform="translate(205.092305, 219.785641)"><path style="stroke:none" d=""/></g></g><g style="fill:#fa632a;fill-opacity:1;"><g transform="translate(221.80991, 219.785641)"><path style="stroke:none" d=""/></g></g><g style="fill:#fa632a;fill-opacity:1;"><g transform="translate(238.527515, 219.785641)"><path style="stroke:none" d=""/></g></g><g style="fill:#fa632a;fill-opacity:1;"><g transform="translate(255.245107, 219.785641)"><path style="stroke:none" d=""/></g></g><g style="fill:#fa632a;fill-opacity:1;"><g transform="translate(271.962724, 219.785641)"><path style="stroke:none" d=""/></g></g><g style="fill:#fa632a;fill-opacity:1;"><g transform="translate(288.680341, 219.785641)"><path style="stroke:none" d=""/></g></g><g style="fill:#fa632a;fill-opacity:1;"><g transform="translate(305.397933, 219.785641)"><path style="stroke:none" d=""/></g></g><g style="fill:#fa632a;fill-opacity:1;"><g transform="translate(322.115525, 219.785641)"><path style="stroke:none" d=""/></g></g><path style=" stroke:none;fill-rule:nonzero;fill:#fa632a;fill-opacity:1;" d="M 41.003906 141.175781 L 167 141.175781 L 167 237.703125 L 41.003906 237.703125 L 41.003906 141.175781 "/><g style="fill:#ffffff;fill-opacity:1;"><g transform="translate(41.397708, 218.100272)"><path style="stroke:none" d=""/></g></g><g style="fill:#ffffff;fill-opacity:1;"><g transform="translate(57.148054, 218.100272)"><path style="stroke:none" d=""/></g></g><g style="fill:#ffffff;fill-opacity:1;"><g transform="translate(72.8984, 218.100272)"><path style="stroke:none" d=""/></g></g><g style="fill:#ffffff;fill-opacity:1;"><g transform="translate(88.648746, 218.100272)"><path style="stroke:none" d=""/></g></g><g style="fill:#ffffff;fill-opacity:1;"><g transform="translate(104.399091, 218.100272)"><path style="stroke:none" d=""/></g></g><g style="fill:#ffffff;fill-opacity:1;"><g transform="translate(120.149437, 218.100272)"><path style="stroke:none" d=""/></g></g><g style="fill:#ffffff;fill-opacity:1;"><g transform="translate(135.899783, 218.100272)"><path style="stroke:none" d=""/></g></g><g style="fill:#ffffff;fill-opacity:1;"><g transform="translate(151.650129, 218.100272)"><path style="stroke:none" d=""/></g></g><g style="fill:#ffffff;fill-opacity:1;"><g transform="translate(47.625148, 219.908751)"><path style="stroke:none" d="M 4.734375 -60.8125 L 28.296875 -60.8125 L 28.296875 -54.5 L 13.21875 -54.5 L 13.21875 -34.390625 L 25.453125 -34.390625 L 25.453125 -28.375 L 13.21875 -28.375 L 13.21875 -6.078125 L 28.453125 -6.078125 L 28.453125 0 L 4.734375 0 Z M 4.734375 -60.8125 "/></g></g><g style="fill:#ffffff;fill-opacity:1;"><g transform="translate(79.083965, 219.908751)"><path style="stroke:none" d="M 4.734375 -60.8125 L 28.234375 -60.8125 L 28.234375 -54.734375 L 13.21875 -54.734375 L 13.21875 -34.453125 L 24.84375 -34.453125 L 24.84375 -28.453125 L 13.21875 -28.453125 L 13.21875 0 L 4.734375 0 Z M 4.734375 -60.8125 "/></g></g><g style="fill:#ffffff;fill-opacity:1;"><g transform="translate(109.341492, 219.908751)"><path style="stroke:none" d="M 5.1875 -60.8125 L 13.515625 -60.8125 L 13.515625 0 L 5.1875 0 Z M 5.1875 -60.8125 "/></g></g><g style="fill:#ffffff;fill-opacity:1;"><g transform="translate(128.862509, 219.908751)"><path style="stroke:none" d="M 11.40625 -54.5 L 1.125 -54.5 L 1.125 -60.8125 L 29.875 -60.8125 L 29.875 -54.5 L 19.890625 -54.5 L 19.890625 0 L 11.40625 0 Z M 11.40625 -54.5 "/></g></g><g style="fill:#ffffff;fill-opacity:1;"><g transform="translate(160.77369, 219.908751)"><path style="stroke:none" d=""/></g></g><g style="fill:#ffffff;fill-opacity:1;"><g transform="translate(178.86818, 219.908751)"><path style="stroke:none" d=""/></g></g><g style="fill:#ffffff;fill-opacity:1;"><g transform="translate(196.962671, 219.908751)"><path style="stroke:none" d=""/></g></g><g style="fill:#fa632a;fill-opacity:1;"><g transform="translate(172.210292, 221.249985)"><path style="stroke:none" d="M 4.5 -60.8125 L 31.828125 -60.8125 L 31.828125 -51.65625 L 17.9375 -51.65625 L 17.9375 -36.5625 L 28.53125 -36.5625 L 28.53125 -27.25 L 17.9375 -27.25 L 17.9375 -9.078125 L 31.984375 -9.078125 L 31.984375 0 L 4.5 0 Z M 4.5 -60.8125 "/></g></g><g style="fill:#fa632a;fill-opacity:1;"><g transform="translate(206.673005, 221.249985)"><path style="stroke:none" d="M 4.5 -60.8125 L 17.9375 -60.8125 L 17.9375 -9.078125 L 31.90625 -9.078125 L 31.90625 0 L 4.5 0 Z M 4.5 -60.8125 "/></g></g><g style="fill:#fa632a;fill-opacity:1;"><g transform="translate(240.83539, 221.249985)"><path style="stroke:none" d="M 4.578125 -60.8125 L 18.015625 -60.8125 L 18.015625 0 L 4.578125 0 Z M 4.578125 -60.8125 "/></g></g><g style="fill:#fa632a;fill-opacity:1;"><g transform="translate(264.336128, 221.249985)"><path style="stroke:none" d="M 4.5 -60.8125 L 30.78125 -60.8125 L 30.78125 -51.734375 L 17.9375 -51.734375 L 17.9375 -36.40625 L 29.125 -36.40625 L 29.125 -27.03125 L 17.9375 -27.03125 L 17.9375 0 L 4.5 0 Z M 4.5 -60.8125 "/></g></g><g style="fill:#fa632a;fill-opacity:1;"><g transform="translate(297.822775, 221.249985)"><path style="stroke:none" d="M 4.5 -60.8125 L 31.828125 -60.8125 L 31.828125 -51.65625 L 17.9375 -51.65625 L 17.9375 -36.5625 L 28.53125 -36.5625 L 28.53125 -27.25 L 17.9375 -27.25 L 17.9375 -9.078125 L 31.984375 -9.078125 L 31.984375 0 L 4.5 0 Z M 4.5 -60.8125 "/></g></g><g style="fill:#fa632a;fill-opacity:1;"><g transform="translate(332.288406, 221.249985)"><path style="stroke:none" d=""/></g></g><g style="fill:#fa632a;fill-opacity:1;"><g transform="translate(352.41046, 221.249985)"><path style="stroke:none" d=""/></g></g><g style="fill:#fa632a;fill-opacity:1;"><g transform="translate(372.532514, 221.249985)"><path style="stroke:none" d=""/></g></g></g></svg>